<?xml version="1.0" encoding="UTF-8"?>
<svg id="_圖層_1" data-name="圖層_1" xmlns="http://www.w3.org/2000/svg" version="1.1" viewBox="0 0 305 288.42">
  <!-- Generator: Adobe Illustrator 29.6.1, SVG Export Plug-In . SVG Version: 2.1.1 Build 9)  -->
  <defs>
    <style>
      .st0 {
        fill: #8c7d64;
      }
    </style>
  </defs>
  <path class="st0" d="M92.73,144.02c5.65-5.27,11.65-10.15,16.97-15.75,15.52-15.32,29.68-33.17,35.96-54.38-14.82.04-29.64-.08-44.46.07-1.96,10.11-7.11,19.24-12.86,27.65-11.23,16.07-25.46,29.79-40.41,42.37,8.22,7.13,16.24,14.52,23.53,22.63,10.08,10.98,19.6,22.8,25.95,36.38,1.82,3.73,2.81,7.77,4.5,11.57,14.66-.33,29.33.02,43.99-.18-3.25-11.31-9.38-21.57-16.15-31.12-10.59-14.59-23.36-27.51-37.01-39.23h0Z"/>
  <path class="st0" d="M225.26,73.88c-14.82.04-29.64-.08-44.46.07-1.96,10.11-7.11,19.24-12.86,27.65-11.23,16.07-25.46,29.79-40.41,42.37,8.22,7.13,16.24,14.52,23.53,22.63,10.08,10.98,19.6,22.8,25.95,36.38,1.82,3.73,2.81,7.77,4.5,11.57,14.66-.33,29.33.02,43.99-.18-.07-.25-.16-.51-.23-.76V73.88h0Z"/>
  <path class="st0" d="M145.9,288.42c-38.52,0-74.74-15-101.97-42.24C16.69,218.95,1.68,182.73,1.68,144.21s15-74.74,42.24-101.98C71.16,15,107.37,0,145.9,0s74.74,15,101.97,42.24c27.24,27.24,42.24,63.45,42.24,101.97s-15,74.74-42.24,101.97c-27.24,27.24-63.45,42.24-101.97,42.24h0ZM145.9,17.54c-33.84,0-65.65,13.18-89.57,37.1-23.93,23.93-37.1,55.73-37.1,89.57s13.18,65.65,37.1,89.57c23.93,23.92,55.74,37.1,89.57,37.1s65.65-13.18,89.57-37.1c23.93-23.93,37.1-55.74,37.1-89.57s-13.18-65.65-37.1-89.57c-23.93-23.93-55.74-37.1-89.57-37.1Z"/>
</svg>