<svg width="305" height="386" viewBox="0 0 305 386" fill="none" xmlns="http://www.w3.org/2000/svg">
<path d="M0 331.526H8.93271V355.076L36.8874 331.526H42.6949L16.1839 353.878L49.8312 384.639H38.4541L8.93271 357.685V384.639H0V331.526ZM61.2986 331.526H70.2313V384.639H61.2986V331.526ZM106.167 382.514C107.48 382.514 108.767 382.342 110.055 381.989C111.335 381.612 112.483 381.079 113.5 380.39C114.518 379.668 115.33 378.798 115.945 377.789C116.56 376.748 116.863 375.55 116.863 374.188C116.863 372.556 116.437 371.121 115.584 369.865C114.755 368.586 113.664 367.421 112.303 366.379C110.941 365.313 109.374 364.312 107.619 363.377C105.88 362.442 104.108 361.507 102.296 360.572C100.483 359.637 98.6864 358.661 96.931 357.652C95.192 356.61 93.6499 355.462 92.2883 354.207C90.9266 352.927 89.8193 351.508 88.9662 349.958C88.1377 348.383 87.7276 346.578 87.7276 344.552C87.7276 342.526 88.1049 340.639 88.8514 338.909C89.6224 337.17 90.7462 335.677 92.2145 334.422C93.6827 333.142 95.4873 332.141 97.62 331.42C99.7855 330.698 102.255 330.337 105.027 330.337C107.537 330.337 109.776 330.608 111.753 331.141C113.73 331.674 115.461 332.461 116.962 333.503C118.455 334.545 119.726 335.824 120.768 337.35C121.81 338.876 122.646 340.631 123.294 342.641L118.726 344.724C118.192 343.092 117.512 341.615 116.683 340.278C115.855 338.917 114.87 337.752 113.722 336.792C112.573 335.833 111.236 335.094 109.719 334.586C108.226 334.053 106.528 333.782 104.633 333.782C102.952 333.782 101.483 334.02 100.228 334.504C98.9735 334.955 97.9153 335.57 97.0622 336.349C96.2338 337.096 95.6104 337.949 95.1756 338.909C94.7737 339.844 94.5768 340.803 94.5768 341.796C94.5768 343.182 95.0034 344.47 95.8564 345.643C96.7095 346.791 97.8415 347.882 99.2606 348.924C100.68 349.941 102.279 350.926 104.067 351.885C105.88 352.845 107.726 353.821 109.596 354.805C111.466 355.79 113.295 356.823 115.084 357.89C116.896 358.956 118.512 360.129 119.931 361.417C121.35 362.672 122.482 364.058 123.335 365.584C124.188 367.077 124.615 368.758 124.615 370.628C124.615 372.736 124.213 374.73 123.417 376.6C122.614 378.445 121.416 380.061 119.816 381.448C118.217 382.809 116.224 383.892 113.845 384.696C111.466 385.5 108.702 385.894 105.552 385.894C102.993 385.894 100.704 385.615 98.7028 385.049C96.7013 384.491 94.9213 383.671 93.3792 382.604C91.8535 381.538 90.5493 380.242 89.4584 378.716C88.3592 377.166 87.4651 375.402 86.7761 373.434L91.5418 371.473C92.0996 373.212 92.8543 374.754 93.7812 376.116C94.7409 377.478 95.8482 378.642 97.1033 379.602C98.3583 380.537 99.7445 381.259 101.27 381.768C102.821 382.276 104.461 382.53 106.2 382.53L106.167 382.514ZM140.307 331.526H149.239V366.01C149.239 368.282 149.625 370.415 150.404 372.417C151.175 374.393 152.291 376.124 153.726 377.625C155.17 379.118 156.901 380.307 158.935 381.193C160.994 382.046 163.274 382.473 165.784 382.473C168.294 382.473 170.607 382.046 172.633 381.193C174.66 380.316 176.382 379.126 177.801 377.625C179.245 376.132 180.336 374.393 181.082 372.417C181.853 370.415 182.247 368.274 182.247 366.01V331.526H186.176V366.01C186.176 368.734 185.733 371.301 184.855 373.704C183.978 376.108 182.583 378.216 180.688 380.037C178.818 381.825 176.415 383.252 173.478 384.319C170.542 385.36 167.015 385.877 162.905 385.877C159.247 385.877 155.998 385.352 153.169 384.319C150.363 383.252 148.001 381.809 146.081 379.996C144.187 378.183 142.743 376.059 141.759 373.631C140.799 371.178 140.315 368.561 140.315 365.781V331.526H140.307ZM203.853 331.526H222.276C225.45 331.526 228.239 331.871 230.643 332.568C233.046 333.232 235.048 334.184 236.647 335.414C238.247 336.645 239.452 338.113 240.256 339.819C241.085 341.501 241.495 343.346 241.495 345.348C241.495 347.005 241.175 348.555 240.535 349.99C239.92 351.434 239.042 352.738 237.894 353.92C236.77 355.068 235.409 356.069 233.809 356.922C232.209 357.75 230.446 358.406 228.518 358.882L247.86 384.639H237.484L219.02 359.686H212.769V384.639H203.836V331.526H203.853ZM212.777 357.004H217.945C219.947 357.004 221.792 356.733 223.474 356.2C225.18 355.667 226.648 354.92 227.878 353.961C229.133 352.976 230.11 351.787 230.799 350.392C231.496 349.006 231.84 347.439 231.84 345.709C231.84 344.109 231.561 342.641 230.995 341.304C230.462 339.967 229.683 338.835 228.674 337.9C227.69 336.94 226.5 336.194 225.106 335.66C223.744 335.127 222.251 334.856 220.619 334.856H212.769V357.004H212.777ZM280.006 330.329L305 384.639H295.911L287.824 366.937H265.037L256.67 384.639H252.183L277.759 330.329H280.006ZM266.587 363.492H286.175L276.52 342.469L266.587 363.492Z" fill="#8C7D64"/>
<path d="M92.7349 144.017C98.3873 138.746 104.386 133.865 109.701 128.265C125.22 112.948 139.384 95.0918 145.659 73.8809C130.837 73.9247 116.016 73.7975 101.194 73.9554C99.2293 84.0632 94.0855 93.193 88.3366 101.604C77.1062 117.671 62.8764 131.396 47.9275 143.977C56.1452 151.108 64.1657 158.501 71.4538 166.605C81.5308 177.589 91.051 189.403 97.4007 202.988C99.2161 206.716 100.212 210.763 101.9 214.556C116.564 214.227 131.228 214.578 145.887 214.376C142.633 203.063 136.507 192.806 129.737 183.255C119.151 168.666 106.377 155.747 92.7305 144.021L92.7349 144.017Z" fill="#8C7D64"/>
<path d="M225.262 73.8809C210.441 73.9247 195.619 73.7975 180.797 73.9554C178.833 84.0632 173.689 93.193 167.94 101.604C156.71 117.671 142.48 131.396 127.531 143.977C135.749 151.108 143.769 158.501 151.057 166.605C161.134 177.589 170.654 189.403 177.004 202.988C178.819 206.716 179.815 210.763 181.503 214.556C196.167 214.227 210.831 214.578 225.49 214.376C225.416 214.122 225.333 213.868 225.258 213.613V73.8809H225.262Z" fill="#8C7D64"/>
<path d="M145.896 288.424C107.377 288.424 71.1598 273.422 43.9237 246.186C16.6876 218.95 1.68164 182.733 1.68164 144.214C1.68164 105.695 16.6832 69.4782 43.9193 42.2377C71.1554 14.9972 107.372 0 145.896 0C184.419 0 220.632 15.0016 247.868 42.2377C275.104 69.4782 290.106 105.691 290.106 144.21C290.106 182.729 275.104 218.946 247.868 246.182C220.627 273.418 184.415 288.42 145.896 288.42V288.424ZM145.896 17.5406C112.06 17.5406 80.2502 30.7179 56.3249 54.6433C32.3996 78.5686 19.2222 110.378 19.2222 144.214C19.2222 178.05 32.3996 209.86 56.3249 233.785C80.2502 257.71 112.06 270.888 145.896 270.888C179.732 270.888 211.541 257.71 235.467 233.785C259.392 209.86 272.569 178.05 272.569 144.214C272.569 110.378 259.392 78.5686 235.467 54.6433C211.541 30.7179 179.732 17.5406 145.896 17.5406Z" fill="#8C7D64"/>
</svg>
