<svg width="372" height="68" viewBox="0 0 372 68" fill="none" xmlns="http://www.w3.org/2000/svg">
<path d="M0 1.46H10.89V30.17L44.97 1.46H52.05L19.73 28.71L60.75 66.21H46.88L10.89 33.35V66.21H0V1.46ZM74.73 1.46H85.62V66.21H74.73V1.46ZM129.43 63.62C131.03 63.62 132.6 63.41 134.17 62.98C135.73 62.52 137.13 61.87 138.37 61.03C139.61 60.15 140.6 59.09 141.35 57.86C142.1 56.59 142.47 55.13 142.47 53.47C142.47 51.48 141.95 49.73 140.91 48.2C139.9 46.64 138.57 45.22 136.91 43.95C135.25 42.65 133.34 41.43 131.2 40.29C129.08 39.15 126.92 38.01 124.71 36.87C122.5 35.73 120.31 34.54 118.17 33.31C116.05 32.04 114.17 30.64 112.51 29.11C110.85 27.55 109.5 25.82 108.46 23.93C107.45 22.01 106.95 19.81 106.95 17.34C106.95 14.87 107.41 12.57 108.32 10.46C109.26 8.34 110.63 6.52 112.42 4.99C114.21 3.43 116.41 2.21 119.01 1.33C121.65 0.45 124.66 0.01 128.04 0.01C131.1 0.01 133.83 0.34 136.24 0.99C138.65 1.64 140.76 2.6 142.59 3.87C144.41 5.14 145.96 6.7 147.23 8.56C148.5 10.42 149.52 12.56 150.31 15.01L144.74 17.55C144.09 15.56 143.26 13.76 142.25 12.13C141.24 10.47 140.04 9.05 138.64 7.88C137.24 6.71 135.61 5.81 133.76 5.19C131.94 4.54 129.87 4.21 127.56 4.21C125.51 4.21 123.72 4.5 122.19 5.09C120.66 5.64 119.37 6.39 118.33 7.34C117.32 8.25 116.56 9.29 116.03 10.46C115.54 11.6 115.3 12.77 115.3 13.98C115.3 15.67 115.82 17.24 116.86 18.67C117.9 20.07 119.28 21.4 121.01 22.67C122.74 23.91 124.69 25.11 126.87 26.28C129.08 27.45 131.33 28.64 133.61 29.84C135.89 31.04 138.12 32.3 140.3 33.6C142.51 34.9 144.48 36.33 146.21 37.9C147.94 39.43 149.32 41.12 150.36 42.98C151.4 44.8 151.92 46.85 151.92 49.13C151.92 51.7 151.43 54.13 150.46 56.41C149.48 58.66 148.02 60.63 146.07 62.32C144.12 63.98 141.69 65.3 138.79 66.28C135.89 67.26 132.52 67.74 128.68 67.74C125.56 67.74 122.77 67.4 120.33 66.71C117.89 66.03 115.72 65.03 113.84 63.73C111.98 62.43 110.39 60.85 109.06 58.99C107.72 57.1 106.63 54.95 105.79 52.55L111.6 50.16C112.28 52.28 113.2 54.16 114.33 55.82C115.5 57.48 116.85 58.9 118.38 60.07C119.91 61.21 121.6 62.09 123.46 62.71C125.35 63.33 127.35 63.64 129.47 63.64L129.43 63.62ZM171.05 1.46H181.94V43.5C181.94 46.27 182.41 48.87 183.36 51.31C184.3 53.72 185.66 55.83 187.41 57.66C189.17 59.48 191.28 60.93 193.76 62.01C196.27 63.05 199.05 63.57 202.11 63.57C205.17 63.57 207.99 63.05 210.46 62.01C212.93 60.94 215.03 59.49 216.76 57.66C218.52 55.84 219.85 53.72 220.76 51.31C221.7 48.87 222.18 46.26 222.18 43.5V1.46H226.97V43.5C226.97 46.82 226.43 49.95 225.36 52.88C224.29 55.81 222.59 58.38 220.28 60.6C218 62.78 215.07 64.52 211.49 65.82C207.91 67.09 203.61 67.72 198.6 67.72C194.14 67.72 190.18 67.08 186.73 65.82C183.31 64.52 180.43 62.76 178.09 60.55C175.78 58.34 174.02 55.75 172.82 52.79C171.65 49.8 171.06 46.61 171.06 43.22V1.46H171.05ZM248.52 1.46H270.98C274.85 1.46 278.25 1.88 281.18 2.73C284.11 3.54 286.55 4.7 288.5 6.2C290.45 7.7 291.92 9.49 292.9 11.57C293.91 13.62 294.41 15.87 294.41 18.31C294.41 20.33 294.02 22.22 293.24 23.97C292.49 25.73 291.42 27.32 290.02 28.76C288.65 30.16 286.99 31.38 285.04 32.42C283.09 33.43 280.94 34.23 278.59 34.81L302.17 66.21H289.52L267.01 35.79H259.39V66.21H248.5V1.46H248.52ZM259.4 32.52H265.7C268.14 32.52 270.39 32.19 272.44 31.54C274.52 30.89 276.31 29.98 277.81 28.81C279.34 27.61 280.53 26.16 281.37 24.46C282.22 22.77 282.64 20.86 282.64 18.75C282.64 16.8 282.3 15.01 281.61 13.38C280.96 11.75 280.01 10.37 278.78 9.23C277.58 8.06 276.13 7.15 274.43 6.5C272.77 5.85 270.95 5.52 268.96 5.52H259.39V32.52H259.4ZM341.36 0L371.83 66.21H360.75L350.89 44.63H323.11L312.91 66.21H307.44L338.62 0H341.36ZM325 40.43H348.88L337.11 14.8L325 40.43Z" fill="#8C7D64"/>
</svg>
